<?xml version="1.0" encoding="UTF-8"?>
<svg xmlns="http://www.w3.org/2000/svg" width="1000" height="420" viewBox="0 0 1000 420" role="img" aria-labelledby="title desc">
  <title id="title">StatPan language breakdown</title>
  <desc id="desc">Programming language percentages across public non-fork repositories.</desc>
  <defs>
    <linearGradient id="background" x1="0" y1="0" x2="1" y2="1"><stop offset="0%" stop-color="#0B1020"/><stop offset="100%" stop-color="#171D35"/></linearGradient>
    <filter id="shadow" x="-20%" y="-20%" width="140%" height="140%"><feDropShadow dx="0" dy="10" stdDeviation="12" flood-color="#000000" flood-opacity="0.28"/></filter>
  </defs>
  <rect x="8" y="8" width="984" height="404" rx="24" fill="url(#background)" stroke="#2B355C" filter="url(#shadow)"/>
  <text x="44" y="56" fill="#F0F6FC" font-family="-apple-system,BlinkMacSystemFont,'Segoe UI',sans-serif" font-size="22" font-weight="700" letter-spacing="2">LANGUAGE BREAKDOWN</text>
  <text x="44" y="82" fill="#8B949E" font-family="-apple-system,BlinkMacSystemFont,'Segoe UI',sans-serif" font-size="14">Public repositories · GitHub Linguist · updated 2026-07-22</text>
  <circle cx="205" cy="233" r="112" fill="none" stroke="#252B48" stroke-width="28"/>
  <circle cx="205" cy="233" r="112" fill="none" stroke="#00ADD8" stroke-width="28" stroke-dasharray="396.5786335874389 703.7167544041137" stroke-dashoffset="0" transform="rotate(-90 205 233)"/><circle cx="205" cy="233" r="112" fill="none" stroke="#3572A5" stroke-width="28" stroke-dasharray="264.75330805630136 703.7167544041137" stroke-dashoffset="-399.0786335874389" transform="rotate(-90 205 233)"/><circle cx="205" cy="233" r="112" fill="none" stroke="#3178C6" stroke-width="28" stroke-dasharray="15.078798811658604 703.7167544041137" stroke-dashoffset="-666.3319416437403" transform="rotate(-90 205 233)"/><circle cx="205" cy="233" r="112" fill="none" stroke="#DEA584" stroke-width="28" stroke-dasharray="4.5230402792177955 703.7167544041137" stroke-dashoffset="-683.9107404553989" transform="rotate(-90 205 233)"/><circle cx="205" cy="233" r="112" fill="none" stroke="#E34C26" stroke-width="28" stroke-dasharray="0.37085601652248457 703.7167544041137" stroke-dashoffset="-690.9337807346167" transform="rotate(-90 205 233)"/><circle cx="205" cy="233" r="112" fill="none" stroke="#F1E05A" stroke-width="28" stroke-dasharray="0.1693386300802291 703.7167544041137" stroke-dashoffset="-693.8046367511391" transform="rotate(-90 205 233)"/><circle cx="205" cy="233" r="112" fill="none" stroke="#89E051" stroke-width="28" stroke-dasharray="0 703.7167544041137" stroke-dashoffset="-696.4739753812194" transform="rotate(-90 205 233)"/><circle cx="205" cy="233" r="112" fill="none" stroke="#6E7681" stroke-width="28" stroke-dasharray="2.580811980224799 703.7167544041137" stroke-dashoffset="-698.6359424238889" transform="rotate(-90 205 233)"/>
  <circle cx="205" cy="233" r="78" fill="#11172A"/>
  <text x="205" y="230" text-anchor="middle" fill="#F0F6FC" font-family="-apple-system,BlinkMacSystemFont,'Segoe UI',sans-serif" font-size="25" font-weight="700">8</text>
  <text x="205" y="255" text-anchor="middle" fill="#8B949E" font-family="-apple-system,BlinkMacSystemFont,'Segoe UI',sans-serif" font-size="13" letter-spacing="1.5">LANGUAGES</text>
  <g transform="translate(390 132)"><circle cx="5" cy="5" r="5" fill="#00ADD8"/><text x="20" y="9" fill="#E6EDF3" font-size="16" font-weight="600">Go</text><text x="250" y="9" text-anchor="end" fill="#8B949E" font-size="15">56.7%</text><rect x="20" y="22" width="220" height="6" rx="3" fill="#252B48"/><rect x="20" y="22" width="220.0" height="6" rx="3" fill="#00ADD8"/></g><g transform="translate(390 191)"><circle cx="5" cy="5" r="5" fill="#3572A5"/><text x="20" y="9" fill="#E6EDF3" font-size="16" font-weight="600">Python</text><text x="250" y="9" text-anchor="end" fill="#8B949E" font-size="15">38.0%</text><rect x="20" y="22" width="220" height="6" rx="3" fill="#252B48"/><rect x="20" y="22" width="147.3" height="6" rx="3" fill="#3572A5"/></g><g transform="translate(390 250)"><circle cx="5" cy="5" r="5" fill="#3178C6"/><text x="20" y="9" fill="#E6EDF3" font-size="16" font-weight="600">TypeScript</text><text x="250" y="9" text-anchor="end" fill="#8B949E" font-size="15">2.5%</text><rect x="20" y="22" width="220" height="6" rx="3" fill="#252B48"/><rect x="20" y="22" width="9.7" height="6" rx="3" fill="#3178C6"/></g><g transform="translate(390 309)"><circle cx="5" cy="5" r="5" fill="#DEA584"/><text x="20" y="9" fill="#E6EDF3" font-size="16" font-weight="600">Rust</text><text x="250" y="9" text-anchor="end" fill="#8B949E" font-size="15">1.0%</text><rect x="20" y="22" width="220" height="6" rx="3" fill="#252B48"/><rect x="20" y="22" width="4.0" height="6" rx="3" fill="#DEA584"/></g><g transform="translate(680 132)"><circle cx="5" cy="5" r="5" fill="#E34C26"/><text x="20" y="9" fill="#E6EDF3" font-size="16" font-weight="600">HTML</text><text x="250" y="9" text-anchor="end" fill="#8B949E" font-size="15">0.4%</text><rect x="20" y="22" width="220" height="6" rx="3" fill="#252B48"/><rect x="20" y="22" width="4.0" height="6" rx="3" fill="#E34C26"/></g><g transform="translate(680 191)"><circle cx="5" cy="5" r="5" fill="#F1E05A"/><text x="20" y="9" fill="#E6EDF3" font-size="16" font-weight="600">JavaScript</text><text x="250" y="9" text-anchor="end" fill="#8B949E" font-size="15">0.4%</text><rect x="20" y="22" width="220" height="6" rx="3" fill="#252B48"/><rect x="20" y="22" width="4.0" height="6" rx="3" fill="#F1E05A"/></g><g transform="translate(680 250)"><circle cx="5" cy="5" r="5" fill="#89E051"/><text x="20" y="9" fill="#E6EDF3" font-size="16" font-weight="600">Shell</text><text x="250" y="9" text-anchor="end" fill="#8B949E" font-size="15">0.3%</text><rect x="20" y="22" width="220" height="6" rx="3" fill="#252B48"/><rect x="20" y="22" width="4.0" height="6" rx="3" fill="#89E051"/></g><g transform="translate(680 309)"><circle cx="5" cy="5" r="5" fill="#6E7681"/><text x="20" y="9" fill="#E6EDF3" font-size="16" font-weight="600">Other</text><text x="250" y="9" text-anchor="end" fill="#8B949E" font-size="15">0.7%</text><rect x="20" y="22" width="220" height="6" rx="3" fill="#252B48"/><rect x="20" y="22" width="4.0" height="6" rx="3" fill="#6E7681"/></g>
  <text x="44" y="383" fill="#6E7681" font-family="-apple-system,BlinkMacSystemFont,'Segoe UI',sans-serif" font-size="12">Forks excluded · percentages are based on detected code bytes</text>
</svg>
